<?xml version="1.0" encoding="UTF-8"?>
<svg id="Layer_1" xmlns="http://www.w3.org/2000/svg" xmlns:xlink="http://www.w3.org/1999/xlink" version="1.1" viewBox="0 0 1920 207.3">
  <!-- Paper Texture Filter (applied only to squares) -->
  <filter id="paperNoise">
    <feTurbulence type="fractalNoise" baseFrequency="0.03" numOctaves="2"/>
    <feColorMatrix values="1 0 0 0 0 
                          0 1 0 0 0 
                          0 0 1 0 0 
                          0 0 0 8 -4"/>
  </filter>

  <!-- Generator: Adobe Illustrator 29.2.1, SVG Export Plug-In . SVG Version: 2.1.0 Build 116)  -->
  <defs>
    <style>
      .st0, .st1 {
        opacity: .8;
      }
      /* Apply paper texture to squares */
      .st1, .st2, .st4, .st5, .st6, .st7, .st8 {
        filter: url(#paperNoise);
      }
      /* Original fills (now textured) */
      .st2, .st3, .st4, .st5, .st1, .st6, .st7, .st8 {
        fill: #07286e;
      }
      .st3 {
        opacity: .4;
        filter: none; /* Exclude .st3 from texture */
      }
      .st3, .st4, .st5, .st1, .st6, .st7, .st8 {
        isolation: isolate;
      }
      .st4 {
        opacity: .7;
      }
      .st5 {
        opacity: .9;
      }
      .st6 {
        opacity: .3;
      }
      .st7 {
        opacity: .5;
      }
      .st8 {
        opacity: .6;
      }
    </style>
  </defs>

  <!-- Original SVG Content (squares now have paper texture) -->
  <g class="st0">
    <g>
      <rect class="st6" x="415.8" y="-222.9" width="8" height="8"/>
      <rect class="st2" x="322.3" y="-37.9" width="35.8" height="35.8"/>
      <rect class="st5" x="364.1" y="-35.9" width="31.8" height="31.8"/>
      <rect class="st5" x="324.3" y="-75.7" width="31.8" height="31.8"/>
      <rect class="st5" x="324.3" y="3.9" width="31.8" height="31.8"/>
      <rect class="st4" x="248.7" y="87.5" width="23.9" height="23.9"/>
      <rect class="st5" x="284.5" y="-35.9" width="31.8" height="31.8"/>
      <rect class="st4" x="208.9" y="47.7" width="23.9" height="23.9"/>
      <rect class="st4" x="169.1" y="7.9" width="23.9" height="23.9"/>
      <rect class="st8" x="131.3" y="9.9" width="19.9" height="19.9"/>
      <rect class="st7" x="53.7" y="51.7" width="15.9" height="15.9"/>
      <rect class="st1" x="286.4" y="-73.7" width="27.9" height="27.9"/>
      <rect class="st1" x="286.5" y="5.9" width="27.9" height="27.9"/>
      <rect class="st1" x="326.3" y="45.7" width="27.9" height="27.9"/>
      <rect class="st1" x="366.1" y="5.9" width="27.9" height="27.9"/>
      <rect class="st1" x="366" y="-73.6" width="27.9" height="27.9"/>
      <rect class="st1" x="326.2" y="-113.4" width="27.9" height="27.9"/>
      <rect class="st1" x="246.6" y="-33.9" width="27.9" height="27.9"/>
      <rect class="st1" x="405.8" y="-33.8" width="27.9" height="27.9"/>
      <rect class="st5" x="165.2" y="83.5" width="31.8" height="31.8"/>
      <rect class="st1" x="167.1" y="45.7" width="27.9" height="27.9"/>
      <rect class="st2" x="83.5" y="-117.5" width="35.8" height="35.8"/>
      <rect class="st5" x="125.3" y="-115.5" width="31.8" height="31.8"/>
      <rect class="st5" x="85.6" y="-155.3" width="31.8" height="31.8"/>
      <rect class="st5" x="45.8" y="-115.5" width="31.8" height="31.8"/>
      <rect class="st1" x="47.7" y="-153.3" width="27.9" height="27.9"/>
      <rect class="st1" x="47.6" y="-73.7" width="27.9" height="27.9"/>
      <rect class="st1" x="87.4" y="-33.9" width="27.9" height="27.9"/>
      <rect class="st1" x="127.2" y="-73.7" width="27.9" height="27.9"/>
      <rect class="st1" x="127.2" y="-153.3" width="27.9" height="27.9"/>
      <rect class="st1" x="87.5" y="-193.1" width="27.9" height="27.9"/>
      <rect class="st1" x="7.9" y="-113.5" width="27.9" height="27.9"/>
      <rect class="st1" x="167" y="-113.5" width="27.9" height="27.9"/>
      <rect class="st5" x="85.5" y="-75.7" width="31.8" height="31.8"/>
      <rect class="st4" x="129.3" y="47.7" width="23.9" height="23.9"/>
      <rect class="st4" x="89.5" y="87.5" width="23.9" height="23.9"/>
      <rect class="st4" x="49.7" y="127.3" width="23.9" height="23.9"/>
      <rect class="st4" x="288.5" y="127.3" width="23.9" height="23.9"/>
      <rect class="st4" x="288.5" y="47.7" width="23.9" height="23.9"/>
      <rect class="st4" x="248.7" y="7.9" width="23.9" height="23.9"/>
      <rect class="st4" x="208.9" y="-31.9" width="23.9" height="23.9"/>
      <rect class="st8" x="210.9" y="9.9" width="19.9" height="19.9"/>
      <rect class="st8" x="250.7" y="49.7" width="19.9" height="19.9"/>
      <rect class="st8" x="290.5" y="89.5" width="19.9" height="19.9"/>
      <rect class="st8" x="171.1" y="-29.9" width="19.9" height="19.9"/>
      <rect class="st4" x="169.1" y="-71.7" width="23.9" height="23.9"/>
      <rect class="st4" x="129.3" y="-31.9" width="23.9" height="23.9"/>
      <rect class="st4" x="89.5" y="7.9" width="23.9" height="23.9"/>
      <rect class="st4" x="49.7" y="-31.9" width="23.9" height="23.9"/>
      <rect class="st4" x="208.8" y="-111.5" width="23.9" height="23.9"/>
      <rect class="st4" x="169" y="-151.3" width="23.9" height="23.9"/>
      <rect class="st4" x="129.3" y="-191.1" width="23.9" height="23.9"/>
      <rect class="st4" x="10" y="-71.7" width="23.9" height="23.9"/>
      <rect class="st4" x="9.9" y="-151.3" width="23.9" height="23.9"/>
      <rect class="st4" x="49.7" y="-191.1" width="23.9" height="23.9"/>
      <rect class="st4" x="89.5" y="-230.9" width="23.9" height="23.9"/>
      <rect class="st8" x="51.7" y="9.9" width="19.9" height="19.9"/>
      <rect class="st8" x="91.5" y="49.7" width="19.9" height="19.9"/>
      <rect class="st8" x="11.9" y="-29.9" width="19.9" height="19.9"/>
      <rect class="st8" x="11.9" y="129.3" width="19.9" height="19.9"/>
      <rect class="st8" x="171" y="-189.1" width="19.9" height="19.9"/>
      <rect class="st8" x="210.8" y="-149.3" width="19.9" height="19.9"/>
      <rect class="st8" x="250.7" y="-109.5" width="19.9" height="19.9"/>
      <rect class="st8" x="131.3" y="-228.9" width="19.9" height="19.9"/>
      <rect class="st4" x="248.7" y="-71.7" width="23.9" height="23.9"/>
      <rect class="st8" x="210.9" y="-69.7" width="19.9" height="19.9"/>
      <rect class="st8" x="51.7" y="-228.9" width="19.9" height="19.9"/>
      <rect class="st8" x="11.9" y="-189.1" width="19.9" height="19.9"/>
      <rect class="st4" x="368.1" y="47.7" width="23.9" height="23.9"/>
      <rect class="st4" x="407.9" y="7.9" width="23.9" height="23.9"/>
      <rect class="st4" x="447.7" y="-31.8" width="23.9" height="23.9"/>
      <rect class="st8" x="409.9" y="49.6" width="19.9" height="19.9"/>
      <rect class="st8" x="449.7" y="9.9" width="19.9" height="19.9"/>
      <rect class="st8" x="370.1" y="89.5" width="19.9" height="19.9"/>
      <rect class="st8" x="210.8" y="-228.8" width="19.9" height="19.9"/>
      <rect class="st7" x="13.9" y="11.9" width="15.9" height="15.9"/>
      <rect class="st7" x="13.9" y="91.5" width="15.9" height="15.9"/>
      <rect class="st7" x="451.7" y="51.6" width="15.9" height="15.9"/>
      <rect class="st7" x="13.9" y="-226.9" width="15.9" height="15.9"/>
      <rect class="st4" x="407.9" y="-71.6" width="23.9" height="23.9"/>
      <rect class="st4" x="368" y="-111.4" width="23.9" height="23.9"/>
      <rect class="st4" x="328.2" y="-151.2" width="23.9" height="23.9"/>
      <rect class="st4" x="288.4" y="-111.5" width="23.9" height="23.9"/>
      <rect class="st8" x="290.4" y="-149.2" width="19.9" height="19.9"/>
      <rect class="st8" x="370" y="-149.2" width="19.9" height="19.9"/>
      <rect class="st8" x="409.9" y="-109.5" width="19.9" height="19.9"/>
      <rect class="st8" x="449.7" y="-69.7" width="19.9" height="19.9"/>
      <rect class="st8" x="330.2" y="-189" width="19.9" height="19.9"/>
      <rect class="st4" x="169.1" y="-230.9" width="23.9" height="23.9"/>
      <rect class="st7" x="372.1" y="131.2" width="15.9" height="15.9"/>
      <rect class="st7" x="332.2" y="-226.8" width="15.9" height="15.9"/>
      <rect class="st7" x="292.5" y="-187" width="15.9" height="15.9"/>
      <rect class="st7" x="252.7" y="-147.3" width="15.9" height="15.9"/>
      <rect class="st7" x="212.9" y="-187.1" width="15.9" height="15.9"/>
      <rect class="st7" x="411.9" y="-147.3" width="15.9" height="15.9"/>
      <rect class="st7" x="372.1" y="-187.1" width="15.9" height="15.9"/>
      <rect class="st3" x="254.7" y="-185" width="11.9" height="11.9"/>
      <rect class="st7" x="252.6" y="-226.8" width="15.9" height="15.9"/>
      <rect class="st3" x="294.5" y="-224.9" width="11.9" height="11.9"/>
      <rect class="st3" x="374.1" y="-224.9" width="11.9" height="11.9"/>
      <rect class="st3" x="413.9" y="-185.1" width="11.9" height="11.9"/>
      <rect class="st3" x="15.9" y="53.7" width="11.9" height="11.9"/>
      <rect class="st4" x="447.6" y="-111.4" width="23.9" height="23.9"/>
      <rect class="st8" x="449.6" y="-149.3" width="19.9" height="19.9"/>
      <rect class="st7" x="451.7" y="-187.1" width="15.9" height="15.9"/>
      <rect class="st3" x="453.7" y="-224.9" width="11.9" height="11.9"/>
      <rect class="st3" x="453.6" y="93.4" width="11.9" height="11.9"/>
      <rect class="st3" x="413.8" y="133.2" width="11.9" height="11.9"/>
    </g>
    <!-- Rest of your SVG groups (repeated pattern) -->
    <g>
      <!-- ... (other groups with squares) ... -->
    </g>
  </g>
</svg>